<svg width="62" height="50" viewBox="0 0 62 50" fill="none" xmlns="http://www.w3.org/2000/svg">
<path d="M6.2 12.5V43.75H55.8V12.5H6.2ZM9.3 9.375C11.0121 9.375 12.4 7.97589 12.4 6.25C12.4 4.52411 11.0121 3.125 9.3 3.125C7.58792 3.125 6.2 4.52411 6.2 6.25C6.2 7.97589 7.58792 9.375 9.3 9.375ZM18.6 9.375C20.3121 9.375 21.7 7.97589 21.7 6.25C21.7 4.52411 20.3121 3.125 18.6 3.125C16.8879 3.125 15.5 4.52411 15.5 6.25C15.5 7.97589 16.8879 9.375 18.6 9.375ZM6.2 0H55.8C59.2242 0 62 2.79822 62 6.25V43.75C62 47.2018 59.2242 50 55.8 50H6.2C2.77583 50 0 47.2018 0 43.75V6.25C0 2.79822 2.77583 0 6.2 0Z" fill="black"/>
</svg>
