<svg width="56" height="56" viewBox="0 0 56 56" fill="none" xmlns="http://www.w3.org/2000/svg">
<path d="M3.00326 24.3113L5.50326 24.3113L5.50326 24.3076L3.00326 24.3113ZM3.00326 40.9003L5.50258 40.9584C5.50303 40.939 5.50326 40.9196 5.50326 40.9003H3.00326ZM14.541 53L14.4806 55.4993C14.5007 55.4998 14.5209 55.5 14.541 55.5L14.541 53ZM41.4589 53V55.5C41.4791 55.5 41.4993 55.4998 41.5194 55.4993L41.4589 53ZM52.9967 40.9003H50.4967C50.4967 40.9196 50.497 40.939 50.4974 40.9584L52.9967 40.9003ZM52.9967 24.3113L50.4967 24.3075V24.3113H52.9967ZM46.8261 11.8365L48.3401 9.84705C48.2701 9.7938 48.1974 9.74428 48.1222 9.69869L46.8261 11.8365ZM35.899 5.21162L34.601 7.34829L34.6029 7.34941L35.899 5.21162ZM20.0974 5.21162L21.3938 7.34922L21.3953 7.34833L20.0974 5.21162ZM9.17389 11.8365L7.87748 9.69888C7.80239 9.74442 7.72974 9.79389 7.65985 9.84708L9.17389 11.8365ZM37.7028 40.8531C38.5231 39.7425 38.2878 38.1772 37.1771 37.3569C36.0665 36.5365 34.5012 36.7719 33.6809 37.8825L37.7028 40.8531ZM22.3191 37.8825C21.4987 36.7719 19.9334 36.5365 18.8228 37.3569C17.7122 38.1772 17.4769 39.7425 18.2972 40.8531L22.3191 37.8825ZM0.503258 24.3113V40.9003H5.50326V24.3113H0.503258ZM0.503933 40.8422C0.320183 48.7476 6.57533 55.308 14.4806 55.4993L14.6015 50.5007C9.4556 50.3763 5.38294 46.1055 5.50258 40.9584L0.503933 40.8422ZM14.541 55.5H41.4589V50.5H14.541V55.5ZM41.5194 55.4993C49.4246 55.308 55.6799 48.7476 55.4961 40.8421L50.4974 40.9584C50.6171 46.1055 46.5444 50.3763 41.3985 50.5007L41.5194 55.4993ZM55.4967 40.9003V24.3113H50.4967V40.9003H55.4967ZM55.4967 24.3152C55.5054 18.6384 52.8574 13.2848 48.3401 9.84705L45.3121 13.8259C48.5846 16.3163 50.503 20.1947 50.4967 24.3075L55.4967 24.3152ZM48.1222 9.69869L37.195 3.07383L34.6029 7.34941L45.53 13.9743L48.1222 9.69869ZM37.1969 3.07495C31.545 -0.358335 24.4517 -0.358286 18.7996 3.07491L21.3953 7.34833C25.4526 4.88387 30.5442 4.88392 34.601 7.34829L37.1969 3.07495ZM18.801 3.07402L7.87748 9.69888L10.4703 13.9741L21.3938 7.34922L18.801 3.07402ZM7.65985 9.84708C3.14282 13.2848 0.494688 18.6384 0.503261 24.3151L5.50326 24.3076C5.49704 20.1948 7.41561 16.3163 10.6879 13.8259L7.65985 9.84708ZM33.6809 37.8825C32.3492 39.6854 30.2412 40.7491 28 40.7491V45.7491C31.828 45.7491 35.4285 43.9322 37.7028 40.8531L33.6809 37.8825ZM28 40.7491C25.7591 40.7491 23.6507 39.6854 22.3191 37.8825L18.2972 40.8531C20.5715 43.9322 24.1724 45.7491 28 45.7491V40.7491Z" fill="black"/>
</svg>
