<svg width="40" height="50" viewBox="0 0 40 50" fill="none" xmlns="http://www.w3.org/2000/svg">
<path d="M18.125 0C17.5165 0.136454 16.9188 0.340105 16.3428 0.611001C6.3833 5.2937 0 18.3882 0 29.6098C0 40.2727 7.95853 49.032 18.125 50V0Z" fill="black"/>
<path d="M21.875 50C32.0415 49.032 40 40.2727 40 29.6098C40 28.5888 39.9473 27.5522 39.8435 26.5078L21.875 44.5828V50Z" fill="black"/>
<path d="M35.6493 12.8182C34.6768 10.9954 33.5555 9.26855 32.3 7.69058L21.875 18.1773V26.674L35.6493 12.8182Z" fill="black"/>
<path d="M29.771 4.89963C27.933 3.1261 25.8845 1.6582 23.6572 0.611001C23.0812 0.340105 22.4835 0.136454 21.875 0V12.8426L29.771 4.89963Z" fill="black"/>
<path d="M37.341 16.451L21.875 32.0087V39.2481L39.0798 21.9414C38.645 20.0862 38.0615 18.2419 37.341 16.451Z" fill="black"/>
</svg>
